<?xml version="1.0" encoding="UTF-8" standalone="no"?>
<!-- Created with Inkscape (http://www.inkscape.org/) -->

<svg
   xmlns:dc="http://purl.org/dc/elements/1.1/"
   xmlns:cc="http://creativecommons.org/ns#"
   xmlns:rdf="http://www.w3.org/1999/02/22-rdf-syntax-ns#"
   xmlns:svg="http://www.w3.org/2000/svg"
   xmlns="http://www.w3.org/2000/svg"
   xmlns:sodipodi="http://sodipodi.sourceforge.net/DTD/sodipodi-0.dtd"
   xmlns:inkscape="http://www.inkscape.org/namespaces/inkscape"
   width="210mm"
   height="297mm"
   viewBox="0 0 210 297"
   version="1.1"
   id="svg8"
   inkscape:version="0.92.3 (2405546, 2018-03-11)"
   sodipodi:docname="LOGO.svg"
   inkscape:export-filename="C:\Users\CaGua\Pictures\McDrakLogo.png"
   inkscape:export-xdpi="96"
   inkscape:export-ydpi="96">
  <defs
     id="defs2" />
  <sodipodi:namedview
     id="base"
     pagecolor="#ffffff"
     bordercolor="#666666"
     borderopacity="1.0"
     inkscape:pageopacity="0.0"
     inkscape:pageshadow="2"
     inkscape:zoom="0.70710678"
     inkscape:cx="319.26649"
     inkscape:cy="657.1079"
     inkscape:document-units="px"
     inkscape:current-layer="layer1"
     showgrid="false"
     showborder="false"
     inkscape:window-width="1440"
     inkscape:window-height="847"
     inkscape:window-x="-8"
     inkscape:window-y="-8"
     inkscape:window-maximized="1"
     showguides="true"
     inkscape:guide-bbox="true" />
  <metadata
     id="metadata5">
    <rdf:RDF>
      <cc:Work
         rdf:about="">
        <dc:format>image/svg+xml</dc:format>
        <dc:type
           rdf:resource="http://purl.org/dc/dcmitype/StillImage" />
        <dc:title />
      </cc:Work>
    </rdf:RDF>
  </metadata>
  <g
     inkscape:label="Layer 1"
     inkscape:groupmode="layer"
     id="layer1">
    <path
       style="opacity:1;fill:#000000;stroke:none;stroke-width:0.26458332px;stroke-linecap:butt;stroke-linejoin:miter;stroke-opacity:1"
       d="m 181.71119,133.89532 -27.2897,15.75571 0.11375,-30.75945 z"
       id="path848"
       inkscape:connector-curvature="0" />
    <path
       style="opacity:1;fill:#000000;stroke:none;stroke-width:0.26458332px;stroke-linecap:butt;stroke-linejoin:miter;stroke-opacity:1"
       d="M 3.2397895,133.50402 33.49667,116.0352 l 4.295241,23.43614 z"
       id="path846"
       inkscape:connector-curvature="0" />
    <path
       style="color:#000000;font-style:normal;font-variant:normal;font-weight:normal;font-stretch:normal;font-size:medium;line-height:normal;font-family:sans-serif;font-variant-ligatures:normal;font-variant-position:normal;font-variant-caps:normal;font-variant-numeric:normal;font-variant-alternates:normal;font-feature-settings:normal;text-indent:0;text-align:start;text-decoration:none;text-decoration-line:none;text-decoration-style:solid;text-decoration-color:#000000;letter-spacing:normal;word-spacing:normal;text-transform:none;writing-mode:lr-tb;direction:ltr;text-orientation:mixed;dominant-baseline:auto;baseline-shift:baseline;text-anchor:start;white-space:normal;shape-padding:0;clip-rule:nonzero;display:inline;overflow:visible;visibility:visible;opacity:1;isolation:auto;mix-blend-mode:normal;color-interpolation:sRGB;color-interpolation-filters:linearRGB;solid-color:#000000;solid-opacity:1;vector-effect:none;fill:#000000;fill-opacity:1;fill-rule:nonzero;stroke:none;stroke-width:20;stroke-linecap:butt;stroke-linejoin:miter;stroke-miterlimit:4;stroke-dasharray:none;stroke-dashoffset:0;stroke-opacity:1;color-rendering:auto;image-rendering:auto;shape-rendering:auto;text-rendering:auto;enable-background:accumulate"
       d="M 349.51367 176.60742 L 344.51367 179.49414 L 339.51367 182.38086 L 213.75781 254.98633 L 213.75195 254.99023 L 213.70508 255.01562 L 213.66016 255.04297 C 213.31852 255.23977 212.98771 255.43106 212.66797 255.61719 L 95.181641 323.44531 L 95.181641 528.18945 C 95.085527 529.82773 94.998375 531.47916 94.933594 533.15039 L 94.917969 533.5293 L 94.917969 533.92383 C 94.917712 674.30701 209.13052 788.51983 349.51367 788.51953 C 489.89598 788.51862 604.10772 674.30618 604.10742 533.92383 L 604.10742 533.72461 L 604.10352 533.53516 L 604.10352 533.52734 C 604.05552 531.05742 603.96205 528.60607 603.84375 526.16797 L 603.84375 323.44727 L 478.41406 251.02734 C 475.68366 249.37857 472.92967 247.80171 470.16406 246.26953 L 470.09961 246.22656 L 349.51367 176.60742 z "
       transform="scale(0.26458333)"
       id="path1005" />
    <path
       style="color:#000000;font-style:normal;font-variant:normal;font-weight:normal;font-stretch:normal;font-size:medium;line-height:normal;font-family:sans-serif;font-variant-ligatures:normal;font-variant-position:normal;font-variant-caps:normal;font-variant-numeric:normal;font-variant-alternates:normal;font-feature-settings:normal;text-indent:0;text-align:start;text-decoration:none;text-decoration-line:none;text-decoration-style:solid;text-decoration-color:#000000;letter-spacing:normal;word-spacing:normal;text-transform:none;writing-mode:lr-tb;direction:ltr;text-orientation:mixed;dominant-baseline:auto;baseline-shift:baseline;text-anchor:start;white-space:normal;shape-padding:0;clip-rule:nonzero;display:inline;overflow:visible;visibility:visible;opacity:1;isolation:auto;mix-blend-mode:normal;color-interpolation:sRGB;color-interpolation-filters:linearRGB;solid-color:#000000;solid-opacity:1;vector-effect:none;fill:#ffffff;fill-opacity:1;fill-rule:nonzero;stroke:none;stroke-width:20;stroke-linecap:butt;stroke-linejoin:miter;stroke-miterlimit:4;stroke-dasharray:none;stroke-dashoffset:0;stroke-opacity:1;color-rendering:auto;image-rendering:auto;shape-rendering:auto;text-rendering:auto;enable-background:accumulate"
       d="M 349.51367 188.1543 L 344.51367 191.04102 L 218.73828 263.6582 L 218.68359 263.68945 L 218.65234 263.70703 C 218.33441 263.89019 218.01656 264.07504 217.69922 264.25977 L 105.18164 329.21875 L 105.18164 528.43359 C 105.08012 530.13393 104.99177 531.835 104.92578 533.53711 L 104.91797 533.73047 L 104.91797 533.92383 C 104.91772 668.89197 214.54553 778.5198 349.51367 778.51953 C 484.481 778.51866 594.10769 668.89117 594.10742 533.92383 L 594.10742 533.82617 L 594.10547 533.73047 C 594.05747 531.26334 593.96621 528.79689 593.84375 526.33203 L 593.84375 329.2207 L 473.41406 259.6875 C 470.59433 257.98083 467.73577 256.33778 464.84961 254.74609 L 464.82031 254.72656 L 349.51367 188.1543 z "
       transform="scale(0.26458333)"
       id="path996" />
    <path
       style="opacity:1;fill:#000000;stroke:none;stroke-width:6.9852047;stroke-miterlimit:4;stroke-dasharray:none"
       d="m 349.51367,199.70219 -125.81055,72.63672 -0.0586,0.0332 c -0.30508,0.17575 -0.60977,0.35218 -0.91406,0.5293 L 115.18163,334.9932 v 193.6611 c -0.10764,1.75547 -0.19554,3.51209 -0.26367,5.26953 -2.4e-4,129.56373 105.03197,234.59594 234.5957,234.5957 129.56296,-8.4e-4 234.59399,-105.03274 234.59375,-234.5957 -0.0483,-2.49018 -0.13615,-4.97942 -0.26367,-7.4668 V 334.9932 L 468.41405,268.34867 c -2.91878,-1.77071 -5.87586,-3.4775 -8.86914,-5.11914 l -0.006,-0.004 z"
       id="path988"
       transform="scale(0.26458333)" />
    <path
       style="color:#000000;font-style:normal;font-variant:normal;font-weight:normal;font-stretch:normal;font-size:medium;line-height:normal;font-family:sans-serif;font-variant-ligatures:normal;font-variant-position:normal;font-variant-caps:normal;font-variant-numeric:normal;font-variant-alternates:normal;font-feature-settings:normal;text-indent:0;text-align:start;text-decoration:none;text-decoration-line:none;text-decoration-style:solid;text-decoration-color:#000000;letter-spacing:normal;word-spacing:normal;text-transform:none;writing-mode:lr-tb;direction:ltr;text-orientation:mixed;dominant-baseline:auto;baseline-shift:baseline;text-anchor:start;white-space:normal;shape-padding:0;clip-rule:nonzero;display:inline;overflow:visible;visibility:visible;opacity:1;isolation:auto;mix-blend-mode:normal;color-interpolation:sRGB;color-interpolation-filters:linearRGB;solid-color:#000000;solid-opacity:1;vector-effect:none;fill:#000000;fill-opacity:1;fill-rule:nonzero;stroke:none;stroke-width:6.96314573;stroke-linecap:butt;stroke-linejoin:miter;stroke-miterlimit:4;stroke-dasharray:none;stroke-dashoffset:0;stroke-opacity:1;color-rendering:auto;image-rendering:auto;shape-rendering:auto;text-rendering:auto;enable-background:accumulate"
       d="m 3.2397895,133.50402 v 3.48214 35.07526 L 181.71119,133.89532 V 95.337925 Z"
       id="path843"
       inkscape:connector-curvature="0" />
    <rect
       style="opacity:1;fill:#ffffff;stroke:none;stroke-width:5.86785412;stroke-miterlimit:4;stroke-dasharray:none"
       id="rect835"
       width="175.38631"
       height="31.59366"
       x="6.8729434"
       y="137.67941"
       transform="matrix(0.97788965,-0.20912159,0,1,0,0)" />
    <text
       xml:space="preserve"
       style="font-style:normal;font-variant:normal;font-weight:normal;font-stretch:normal;font-size:28.40989876px;line-height:1.25;font-family:'League Gothic';-inkscape-font-specification:'League Gothic, Normal';font-variant-ligatures:normal;font-variant-caps:normal;font-variant-numeric:normal;font-feature-settings:normal;text-align:start;letter-spacing:0px;word-spacing:0px;writing-mode:lr-tb;text-anchor:start;fill:#000000;fill-opacity:1;stroke:none;stroke-width:0.71024472;opacity:1;"
       x="10.338508"
       y="163.91684"
       id="text1010"
       transform="skewY(-12.07088)"><tspan
         sodipodi:role="line"
         id="tspan1008"
         x="10.338508"
         y="163.91684"
         style="font-style:normal;font-variant:normal;font-weight:normal;font-stretch:normal;font-size:28.40989876px;font-family:'League Gothic';-inkscape-font-specification:'League Gothic, Normal';font-variant-ligatures:normal;font-variant-caps:normal;font-variant-numeric:normal;font-feature-settings:normal;text-align:start;writing-mode:lr-tb;text-anchor:start;stroke-width:0.71024472;">ALEJANDRO GUAYARA</tspan></text>
    <g
       aria-label="McDrak"
       style="font-style:normal;font-variant:normal;font-weight:normal;font-stretch:normal;font-size:10.58333302px;line-height:1.25;font-family:'League Gothic';-inkscape-font-specification:'League Gothic, Normal';font-variant-ligatures:normal;font-variant-caps:normal;font-variant-numeric:normal;font-feature-settings:normal;text-align:start;letter-spacing:1.58749998px;word-spacing:0px;writing-mode:lr-tb;text-anchor:start;fill:#ffffff;fill-opacity:1;stroke:none;stroke-width:0.26458332;opacity:1"
       id="text854"
       transform="matrix(1.3487569,0,0,1.3487569,-32.531257,-70.71942)">
      <path
         d="m 80.720572,198.59138 0.249519,-4.93743 0.02328,-0.32998 -0.06225,-0.0125 -1.030172,5.11487 -1.037499,-0.20896 1.535854,-7.62562 1.369499,0.27583 -0.03811,3.61973 -0.02962,0.41507 0.02075,0.004 0.133369,-0.39417 1.366105,-3.35227 1.369499,0.27583 -1.535854,7.62562 -1.0375,-0.20896 1.030172,-5.11487 -0.06225,-0.0125 -0.106277,0.31327 -1.681269,4.64906 z"
         style="font-style:normal;font-variant:normal;font-weight:normal;font-stretch:normal;font-size:10.58333302px;font-family:'League Gothic';-inkscape-font-specification:'League Gothic, Normal';font-variant-ligatures:normal;font-variant-caps:normal;font-variant-numeric:normal;font-feature-settings:normal;text-align:start;letter-spacing:1.58749998px;writing-mode:lr-tb;text-anchor:start;fill:#ffffff;stroke-width:0.26458332"
         id="path861"
         inkscape:connector-curvature="0" />
      <path
         d="m 86.586442,198.15304 c -0.02112,0.21061 -0.03593,0.4644 0.248393,0.49291 0.242202,0.0243 0.317,-0.0852 0.351847,-0.43272 l 0.08025,-0.80032 1.063583,0.10665 -0.05597,0.55812 c -0.06441,0.64236 -0.22143,1.04143 -0.478444,1.27094 -0.257014,0.2295 -0.603494,0.29048 -1.056307,0.24508 -0.379099,-0.038 -0.716046,-0.17817 -0.93185,-0.46572 -0.215803,-0.28755 -0.319937,-0.73408 -0.255525,-1.37644 l 0.25237,-2.5168 c 0.06441,-0.64236 0.255133,-1.05933 0.523734,-1.29831 0.2686,-0.23897 0.626667,-0.30943 1.005766,-0.27142 0.452812,0.0454 0.780285,0.17397 0.986614,0.44994 0.206329,0.27596 0.280983,0.69827 0.216571,1.34063 l -0.04541,0.45281 -1.063583,-0.10665 0.06969,-0.69501 c 0.03485,-0.34751 -0.01672,-0.46968 -0.258924,-0.49397 -0.284324,-0.0285 -0.320197,0.22317 -0.341316,0.43378 z"
         style="font-style:normal;font-variant:normal;font-weight:normal;font-stretch:normal;font-size:10.58333302px;font-family:'League Gothic';-inkscape-font-specification:'League Gothic, Normal';font-variant-ligatures:normal;font-variant-caps:normal;font-variant-numeric:normal;font-feature-settings:normal;text-align:start;letter-spacing:1.58749998px;writing-mode:lr-tb;text-anchor:start;fill:#ffffff;stroke-width:0.26458332"
         id="path863"
         inkscape:connector-curvature="0" />
      <path
         d="m 90.373757,199.77724 0.08118,-7.77832 0.899534,0.009 c 1.058276,0.011 1.627536,0.22866 1.928251,0.8245 0.290133,0.59572 0.322303,1.56978 0.306399,3.0937 -0.0159,1.52391 -0.06828,2.4865 -0.370786,3.07604 -0.313085,0.58944 -0.886763,0.79513 -1.945038,0.78408 z m 1.154866,-1.13101 c 0.391562,0.004 0.614241,-0.0359 0.734628,-0.41569 0.05479,-0.17935 0.09999,-0.45406 0.114442,-0.82435 0.01445,-0.37028 0.01964,-0.86767 0.02627,-1.50264 0.0066,-0.63496 0.01182,-1.13235 0.0051,-1.50286 -0.0068,-0.35992 -0.04629,-0.63552 -0.09721,-0.82656 -0.112545,-0.37161 -0.334341,-0.41626 -0.725903,-0.42035 z"
         style="font-style:normal;font-variant:normal;font-weight:normal;font-stretch:normal;font-size:10.58333302px;font-family:'League Gothic';-inkscape-font-specification:'League Gothic, Normal';font-variant-ligatures:normal;font-variant-caps:normal;font-variant-numeric:normal;font-feature-settings:normal;text-align:start;letter-spacing:1.58749998px;writing-mode:lr-tb;text-anchor:start;fill:#ffffff;stroke-width:0.26458332"
         id="path865"
         inkscape:connector-curvature="0" />
      <path
         d="m 97.679956,194.87408 c -0.0973,-0.0248 -0.203619,-0.0277 -0.29862,-0.0208 -0.168889,0.0123 -0.367914,0.0479 -0.525316,0.2185 -0.188302,0.18344 -0.20695,0.36518 -0.193931,0.54463 l 0.291016,4.01112 -1.066114,0.0773 -0.41891,-5.77391 1.066114,-0.0773 0.04672,0.64389 c 0.0052,-0.0747 0.06606,-0.25946 0.222701,-0.44061 0.157402,-0.17058 0.400014,-0.33674 0.790571,-0.36508 z"
         style="font-style:normal;font-variant:normal;font-weight:normal;font-stretch:normal;font-size:10.58333302px;font-family:'League Gothic';-inkscape-font-specification:'League Gothic, Normal';font-variant-ligatures:normal;font-variant-caps:normal;font-variant-numeric:normal;font-feature-settings:normal;text-align:start;letter-spacing:1.58749998px;writing-mode:lr-tb;text-anchor:start;fill:#ffffff;stroke-width:0.26458332"
         id="path867"
         inkscape:connector-curvature="0" />
      <path
         d="m 100.91706,194.7233 c -0.0143,-0.0942 -0.0366,-0.24066 -0.0839,-0.34052 -0.0577,-0.0983 -0.15259,-0.15879 -0.28861,-0.13812 -0.17787,0.027 -0.23044,0.17419 -0.23639,0.34637 0.002,0.0853 0.006,0.18105 0.0204,0.27522 0.0143,0.0942 0.0286,0.18834 0.0413,0.27204 l -1.056785,0.1606 -0.03657,-0.24065 c -0.0636,-0.41853 0.0361,-0.81906 0.244284,-1.13972 0.208185,-0.32067 0.538491,-0.54215 0.946551,-0.60416 0.34529,-0.0525 0.67986,0.0358 0.95549,0.22946 0.27564,0.19362 0.47142,0.49572 0.52866,0.87239 l 0.53427,3.51564 c 0.0779,0.5127 0.14429,0.73812 0.2243,0.98287 l -1.03585,0.15742 c -0.11166,-0.10078 -0.15301,-0.37283 -0.16414,-0.44607 l -0.0732,0.0111 c -0.038,0.10212 -0.1115,0.25245 -0.2405,0.38981 -0.12899,0.13736 -0.31507,0.25127 -0.52433,0.28308 -0.13602,0.0207 -0.3637,0.002 -0.56292,-0.18208 -0.20808,-0.17177 -0.408628,-0.50526 -0.499263,-1.10166 -0.097,-0.63825 0.02138,-1.12726 0.224791,-1.47931 0.203412,-0.35206 0.487092,-0.59857 0.728002,-0.77434 0.24091,-0.17577 0.4254,-0.30015 0.44976,-0.42161 z m 0.24328,1.60087 c -0.4793,0.29764 -0.62112,0.84373 -0.53843,1.38781 0.0111,0.0733 0.0407,0.19722 0.10002,0.30595 0.0609,0.1192 0.14849,0.20224 0.27404,0.18316 0.24066,-0.0366 0.4172,-0.21327 0.38699,-0.41207 z"
         style="font-style:normal;font-variant:normal;font-weight:normal;font-stretch:normal;font-size:10.58333302px;font-family:'League Gothic';-inkscape-font-specification:'League Gothic, Normal';font-variant-ligatures:normal;font-variant-caps:normal;font-variant-numeric:normal;font-feature-settings:normal;text-align:start;letter-spacing:1.58749998px;writing-mode:lr-tb;text-anchor:start;fill:#ffffff;stroke-width:0.26458332"
         id="path869"
         inkscape:connector-curvature="0" />
      <path
         d="m 104.12564,190.66125 0.86277,3.59141 0.0515,-0.0124 0.0172,-0.20007 0.15072,-1.59268 0.93644,-0.22496 -0.31117,2.01218 1.85893,3.56979 -0.99818,0.23979 -1.06086,-2.15061 -0.0404,-0.0774 -0.0515,0.0124 -0.0111,0.0897 -0.0547,0.36144 0.46723,1.94491 -1.03935,0.24969 -1.81699,-7.56357 z"
         style="font-style:normal;font-variant:normal;font-weight:normal;font-stretch:normal;font-size:10.58333302px;font-family:'League Gothic';-inkscape-font-specification:'League Gothic, Normal';font-variant-ligatures:normal;font-variant-caps:normal;font-variant-numeric:normal;font-feature-settings:normal;text-align:start;letter-spacing:1.58749998px;writing-mode:lr-tb;text-anchor:start;fill:#ffffff;stroke-width:0.26458332"
         id="path871"
         inkscape:connector-curvature="0" />
    </g>
    <path
       sodipodi:type="star"
       style="opacity:1;fill:#ffffff;stroke:none;stroke-width:6.3499999;stroke-miterlimit:4;stroke-dasharray:none"
       id="path874"
       sodipodi:sides="5"
       sodipodi:cx="-62.487617"
       sodipodi:cy="96.815125"
       sodipodi:r1="66.004921"
       sodipodi:r2="24.751846"
       sodipodi:arg1="1.0471976"
       sodipodi:arg2="1.6755161"
       inkscape:flatsided="false"
       inkscape:rounded="0"
       inkscape:randomized="0"
       d="m -29.48516,153.97706 -35.58973,-32.54568 -41.57864,24.43496 19.954953,-43.90502 -36.087533,-31.992818 47.92257,5.410895 19.275319,-44.207611 9.662822,47.249132 48.0003373,4.671015 -41.9506193,23.790677 z"
       inkscape:transform-center-x="0.0213319"
       inkscape:transform-center-y="-0.84332787"
       transform="matrix(0.13393511,-0.01383022,0.01512874,0.13380101,99.412521,155.14636)" />
    <path
       style="fill:#ffffff;stroke-width:0.06212513"
       d="m 85.770575,106.19436 c -2.279089,-1.15019 -3.884924,-2.32038 -5.410188,-3.94249 -1.02601,-1.09117 -1.547451,-1.84502 -2.36988,-3.426216 -1.419872,-2.729831 -2.049207,-5.547709 -1.924424,-8.616736 0.150294,-3.696289 1.472871,-7.239696 3.736625,-10.010916 1.506344,-1.844027 3.03436,-2.985507 5.511564,-4.117313 3.204236,-1.463981 6.547988,-1.85213 10.112474,-1.173868 0.910263,0.173206 2.517579,0.573131 2.597269,0.646244 0.03213,0.02946 -0.0081,0.03151 -0.0891,0.0046 -0.31669,-0.10516 -1.664474,-0.274233 -2.330785,-0.292377 -0.898697,-0.02448 -2.106246,0.119906 -2.994789,0.358074 -0.80988,0.217085 -2.828754,1.117373 -3.65573,1.630218 -1.879179,1.165366 -2.893709,1.99722 -3.932411,3.224364 -2.651052,3.131966 -3.828066,6.985731 -3.353897,10.981256 0.163594,1.378536 0.497112,2.599457 1.062337,3.888949 l 0.285784,0.651994 0.580303,-0.788134 c 0.31917,-0.433467 0.758578,-0.978272 0.976469,-1.210674 0.547239,-0.583678 0.948188,-1.127494 1.173653,-1.591852 0.211912,-0.436428 0.696353,-1.220552 0.999113,-1.617181 0.108397,-0.142002 0.211786,-0.297461 0.22975,-0.345462 0.01821,-0.04873 -0.116358,-0.257079 -0.304676,-0.471661 -0.859685,-0.979588 -1.324902,-1.75412 -1.282952,-2.135952 0.06061,-0.551494 1.173169,-0.918662 2.849924,-0.940523 1.248866,-0.01628 1.400531,-0.0613 3.020609,-0.896683 1.147205,-0.591541 1.777022,-0.848847 2.208556,-0.902273 0.0955,-0.01182 0.419899,0.01752 0.720882,0.06522 0.300985,0.04768 0.644954,0.06035 0.764379,0.02815 0.506297,-0.136548 2.506589,-1.403778 4.405361,-2.790896 1.616632,-1.180996 1.599982,-1.170896 1.754642,-1.064806 0.254,0.174236 0.66479,1.707885 0.62059,2.316951 -0.0189,0.26131 -0.1108,0.581505 -0.34111,1.188498 -0.29057,0.765988 -0.3068,0.833939 -0.20949,0.870051 0.13597,0.05046 0.32713,-0.143063 0.43893,-0.444343 0.0972,-0.261788 0.1346,-0.256589 0.48906,0.06789 0.14667,0.134245 0.18996,0.143456 0.47743,0.101605 0.29491,-0.04295 0.32456,-0.03612 0.4419,0.101873 0.15352,0.180493 0.24796,0.920491 0.17194,1.347266 -0.12549,0.704599 -0.65363,1.347218 -1.42323,1.731771 -0.26234,0.131086 -0.60913,0.349066 -0.77065,0.484395 -0.46813,0.392238 -1.175142,1.242072 -1.636844,1.967484 -0.234553,0.368528 -0.61891,0.915859 -0.854128,1.216288 -0.549081,0.701328 -0.973977,1.562273 -1.364392,2.764631 -0.324856,1.000491 -0.379045,1.343699 -0.373821,2.367941 0.005,0.973073 -0.150179,1.780752 -0.440984,2.295905 -0.120021,0.212586 -0.340466,0.520072 -0.489888,0.683292 -0.551382,0.60231 -1.300273,2.2082 -1.294891,2.7767 l 0.0027,0.28072 0.470051,0.008 c 1.285038,0.0216 3.38817,-0.33511 4.825856,-0.81855 0.802111,-0.26971 2.546551,-1.07547 3.260341,-1.50594 1.97099,-1.188666 3.60618,-2.678825 4.83137,-4.402867 l 0.33536,-0.471929 -0.2279,0.511811 c -0.39329,0.88318 -1.03378,2.168134 -1.43549,2.879935 -2.01356,3.56791 -4.85213,5.94455 -8.742111,7.31951 -2.135087,0.75467 -4.525216,1.04332 -6.625207,0.80009 -1.448917,-0.16782 -2.022993,-0.30964 -3.702694,-0.91476 -0.867996,-0.31269 -1.666083,-0.61287 -1.773507,-0.66713 z"
       id="path900"
       inkscape:connector-curvature="0" />
  </g>
</svg>
