<?xml version="1.0" encoding="UTF-8" standalone="no"?>
<!-- Created with Inkscape (http://www.inkscape.org/) -->

<svg
   xmlns:dc="http://purl.org/dc/elements/1.1/"
   xmlns:cc="http://creativecommons.org/ns#"
   xmlns:rdf="http://www.w3.org/1999/02/22-rdf-syntax-ns#"
   xmlns:svg="http://www.w3.org/2000/svg"
   xmlns="http://www.w3.org/2000/svg"
   xmlns:sodipodi="http://sodipodi.sourceforge.net/DTD/sodipodi-0.dtd"
   xmlns:inkscape="http://www.inkscape.org/namespaces/inkscape"
   width="210mm"
   height="297mm"
   viewBox="0 0 210 297"
   version="1.1"
   id="svg8"
   inkscape:version="0.92.3 (2405546, 2018-03-11)"
   sodipodi:docname="logo2.svg">
  <defs
     id="defs2" />
  <sodipodi:namedview
     id="base"
     pagecolor="#ffffff"
     bordercolor="#666666"
     borderopacity="1.0"
     inkscape:pageopacity="0.0"
     inkscape:pageshadow="2"
     inkscape:zoom="0.5"
     inkscape:cx="405.90758"
     inkscape:cy="664.03146"
     inkscape:document-units="px"
     inkscape:current-layer="layer1"
     showgrid="false"
     showborder="false"
     inkscape:window-width="1440"
     inkscape:window-height="847"
     inkscape:window-x="-8"
     inkscape:window-y="-8"
     inkscape:window-maximized="1"
     showguides="true"
     inkscape:guide-bbox="true" />
  <metadata
     id="metadata5">
    <rdf:RDF>
      <cc:Work
         rdf:about="">
        <dc:format>image/svg+xml</dc:format>
        <dc:type
           rdf:resource="http://purl.org/dc/dcmitype/StillImage" />
        <dc:title></dc:title>
      </cc:Work>
    </rdf:RDF>
  </metadata>
  <g
     inkscape:label="Layer 1"
     inkscape:groupmode="layer"
     id="layer1">
    <g
       id="g1031"
       style="fill:#000000">
      <path
         id="path826"
         transform="scale(0.26458333)"
         d="M 482 203.24414 C 469.19719 203.24414 456.6448 204.33154 444.42578 206.41016 L 444.42578 278.61523 L 482 262.69141 L 519.57617 278.61523 L 519.57617 206.41016 C 507.35681 204.3314 494.80323 203.24414 482 203.24414 z M 439.3418 207.33398 C 349.27568 224.82248 278.38676 296.60941 262.21484 387.13281 L 482.00977 328.24023 L 482.00977 351.25 L 482.00977 473.66797 L 514.6582 342.50195 L 667.02344 301.67578 C 634.47122 253.58268 583.68463 218.79538 524.6582 207.33398 L 524.6582 220.45312 C 576.03333 231.03899 620.56852 260.36962 650.81641 300.9668 L 645.90625 302.28125 C 616.5617 263.62743 573.85764 235.6755 524.6582 225.30273 L 524.6582 238.46289 C 567.94998 248.20303 605.67422 272.46368 632.48047 305.87891 L 619.51562 309.35352 C 595.24356 280.8823 562.26959 260.06612 524.6582 250.99219 L 524.6582 286.28711 L 482 268.20898 L 439.3418 286.28711 L 439.3418 250.99219 C 378.78468 265.6019 330.2355 310.63683 310.70703 369.08789 L 296.76562 372.82422 C 316.09439 305.79525 370.73253 253.89917 439.3418 238.46289 L 439.3418 225.30273 C 362.39383 241.52579 301.32535 300.74072 282.42969 376.66406 L 277.22852 378.05859 C 295.90752 298.87346 359.33361 236.93889 439.3418 220.45312 L 439.3418 207.33398 z M 482.00977 473.66797 L 282.68555 527.07617 C 313.35029 587.61845 370.78917 632.39005 439.3418 645.70117 L 439.3418 632.58789 C 378.3359 620.01677 326.97036 581.01899 297.72852 528.10156 L 302.43555 526.83984 C 330.94934 577.7744 380.49877 615.32823 439.3418 627.73438 L 439.3418 614.57227 C 386.36441 602.65297 341.7243 568.98992 315.23047 523.41211 L 327.47266 520.13086 C 352.0097 560.6081 392.00496 590.62271 439.3418 602.04297 L 439.3418 566.75 L 482 584.82617 L 524.6582 566.75 L 524.6582 602.04297 C 595.23886 585.01503 649.51235 526.65889 660.53125 453.89844 L 673.30273 450.47656 C 663.29264 531.58991 603.1141 596.92061 524.6582 614.57227 L 524.6582 627.73438 C 611.31018 609.46519 677.81798 536.67322 686.64648 446.90039 L 691.54297 445.58984 C 683.18451 538.54815 614.32818 614.11017 524.6582 632.58789 L 524.6582 645.70117 C 624.14654 626.38315 700.24433 540.81641 705.03125 436.92188 L 377.08008 524.79492 L 482.00977 473.66797 z M 482.00391 215.83594 L 486.77539 230.92578 L 502.60156 230.80664 L 489.72461 240.00977 L 494.72852 255.02344 L 481.99805 245.61914 L 469.26367 255.01953 L 474.27344 240.00586 L 461.40039 230.79883 L 477.22656 230.92578 L 482.00391 215.83594 z M 444.42578 574.42188 L 444.42578 646.625 C 456.6448 648.70363 469.19719 649.79105 482 649.79102 C 494.80323 649.79102 507.35681 648.70378 519.57617 646.625 L 519.57617 574.42188 L 482 590.3457 L 444.42578 574.42188 z M 494.72852 598.01172 L 489.72461 613.02539 L 502.60156 622.22852 L 486.77539 622.10938 L 482.00391 637.19922 L 477.22656 622.10938 L 461.40039 622.23633 L 474.27344 613.0293 L 469.26367 598.01562 L 481.99805 607.41602 L 494.72852 598.01172 z "
         style="color:#000000;font-style:normal;font-variant:normal;font-weight:normal;font-stretch:normal;font-size:medium;line-height:normal;font-family:sans-serif;font-variant-ligatures:normal;font-variant-position:normal;font-variant-caps:normal;font-variant-numeric:normal;font-variant-alternates:normal;font-feature-settings:normal;text-indent:0;text-align:start;text-decoration:none;text-decoration-line:none;text-decoration-style:solid;text-decoration-color:#000000;letter-spacing:normal;word-spacing:normal;text-transform:none;writing-mode:lr-tb;direction:ltr;text-orientation:mixed;dominant-baseline:auto;baseline-shift:baseline;text-anchor:start;white-space:normal;shape-padding:0;clip-rule:nonzero;display:inline;overflow:visible;visibility:visible;opacity:1;isolation:auto;mix-blend-mode:normal;color-interpolation:sRGB;color-interpolation-filters:linearRGB;solid-color:#000000;solid-opacity:1;vector-effect:none;fill:#000000;fill-opacity:1;fill-rule:nonzero;stroke:none;stroke-width:30.49265099;stroke-linecap:butt;stroke-linejoin:miter;stroke-miterlimit:4;stroke-dasharray:none;stroke-dashoffset:0;stroke-opacity:1;color-rendering:auto;image-rendering:auto;shape-rendering:auto;text-rendering:auto;enable-background:accumulate" />
      <text
         transform="skewY(-15)"
         id="text947"
         y="152.68741"
         x="12.433619"
         style="font-style:normal;font-variant:normal;font-weight:normal;font-stretch:normal;font-size:37.22114182px;line-height:1.25;font-family:'League Gothic';-inkscape-font-specification:'League Gothic, Normal';font-variant-ligatures:normal;font-variant-caps:normal;font-variant-numeric:normal;font-feature-settings:normal;text-align:start;letter-spacing:0px;word-spacing:0px;writing-mode:lr-tb;text-anchor:start;fill:#000000;fill-opacity:1;stroke:none;stroke-width:0.93052852"
         xml:space="preserve"><tspan
           style="font-style:normal;font-variant:normal;font-weight:normal;font-stretch:normal;font-size:37.22114182px;font-family:'League Gothic';-inkscape-font-specification:'League Gothic, Normal';font-variant-ligatures:normal;font-variant-caps:normal;font-variant-numeric:normal;font-feature-settings:normal;text-align:start;writing-mode:lr-tb;text-anchor:start;fill:#000000;stroke-width:0.93052852"
           y="152.68741"
           x="12.433619"
           id="tspan945"
           sodipodi:role="line">ALEJANDRO</tspan></text>
      <text
         transform="skewY(-15)"
         id="text951"
         y="159.15076"
         x="134.98056"
         style="font-style:normal;font-variant:normal;font-weight:normal;font-stretch:normal;font-size:37.22114182px;line-height:1.25;font-family:'League Gothic';-inkscape-font-specification:'League Gothic, Normal';font-variant-ligatures:normal;font-variant-caps:normal;font-variant-numeric:normal;font-feature-settings:normal;text-align:start;letter-spacing:0px;word-spacing:0px;writing-mode:lr-tb;text-anchor:start;fill:#000000;fill-opacity:1;stroke:none;stroke-width:0.93052852"
         xml:space="preserve"><tspan
           style="font-style:normal;font-variant:normal;font-weight:normal;font-stretch:normal;font-size:37.22114182px;font-family:'League Gothic';-inkscape-font-specification:'League Gothic, Normal';font-variant-ligatures:normal;font-variant-caps:normal;font-variant-numeric:normal;font-feature-settings:normal;text-align:start;writing-mode:lr-tb;text-anchor:start;fill:#000000;stroke-width:0.93052852"
           y="159.15076"
           x="134.98056"
           id="tspan949"
           sodipodi:role="line">GUAYARA</tspan></text>
      <g
         id="text971"
         style="font-style:normal;font-variant:normal;font-weight:normal;font-stretch:normal;font-size:19.043787px;line-height:1.25;font-family:'League Gothic';-inkscape-font-specification:'League Gothic, Normal';font-variant-ligatures:normal;font-variant-caps:normal;font-variant-numeric:normal;font-feature-settings:normal;text-align:start;letter-spacing:1.16681278px;word-spacing:0px;writing-mode:lr-tb;text-anchor:start;fill:#000000;fill-opacity:1;stroke:none;stroke-width:0.47609466"
         aria-label="McDrak">
        <path
           id="path978"
           style="font-style:normal;font-variant:normal;font-weight:normal;font-stretch:normal;font-size:19.043787px;font-family:'League Gothic';-inkscape-font-specification:'League Gothic, Normal';font-variant-ligatures:normal;font-variant-caps:normal;font-variant-numeric:normal;font-feature-settings:normal;text-align:start;letter-spacing:1.16681278px;writing-mode:lr-tb;text-anchor:start;fill:#000000;stroke-width:0.47609466"
           d="m 109.94293,53.229434 -3.76282,-8.06081 -0.24099,-0.544289 -0.10954,0.03251 2.67106,9.000611 -1.82568,0.541797 -3.98221,-13.418761 2.4099,-0.715173 2.98888,5.787541 0.30258,0.684926 0.0365,-0.01084 -0.12001,-0.739106 -0.65201,-6.481041 2.4099,-0.715172 3.98221,13.418761 -1.82568,0.541797 -2.67106,-9.000611 -0.10954,0.03251 0.0949,0.587633 1.24338,8.80849 z" />
        <path
           id="path980"
           style="font-style:normal;font-variant:normal;font-weight:normal;font-stretch:normal;font-size:19.043787px;font-family:'League Gothic';-inkscape-font-specification:'League Gothic, Normal';font-variant-ligatures:normal;font-variant-caps:normal;font-variant-numeric:normal;font-feature-settings:normal;text-align:start;letter-spacing:1.16681278px;writing-mode:lr-tb;text-anchor:start;fill:#000000;stroke-width:0.47609466"
           d="m 118.10743,48.891661 c 0.0569,0.376601 0.14401,0.825678 0.65242,0.748864 0.43309,-0.06543 0.51478,-0.289635 0.42089,-0.911027 l -0.21621,-1.431087 1.90184,-0.287341 0.15078,0.997994 c 0.17354,1.148635 0.0774,1.914303 -0.26862,2.428814 -0.34598,0.514511 -0.92294,0.775021 -1.73263,0.897355 -0.67789,0.102418 -1.32773,0.008 -1.83194,-0.397316 -0.50422,-0.405318 -0.88448,-1.137522 -1.05803,-2.286157 l -0.67994,-4.50039 c -0.17355,-1.148635 -0.0266,-1.960498 0.3354,-2.496684 0.36197,-0.536186 0.95491,-0.818371 1.63279,-0.92079 0.80969,-0.122333 1.43786,-0.0439 1.9204,0.345431 0.48254,0.389333 0.80063,1.092412 0.97417,2.241047 l 0.12234,0.809693 -1.90184,0.287342 -0.18777,-1.242786 c -0.0939,-0.621392 -0.23816,-0.811453 -0.67125,-0.746019 -0.50841,0.07681 -0.45896,0.531581 -0.40207,0.908182 z" />
        <path
           id="path982"
           style="font-style:normal;font-variant:normal;font-weight:normal;font-stretch:normal;font-size:19.043787px;font-family:'League Gothic';-inkscape-font-specification:'League Gothic, Normal';font-variant-ligatures:normal;font-variant-caps:normal;font-variant-numeric:normal;font-feature-settings:normal;text-align:start;letter-spacing:1.16681278px;writing-mode:lr-tb;text-anchor:start;fill:#000000;stroke-width:0.47609466"
           d="m 123.81087,50.589987 -0.38254,-13.991955 1.61811,-0.04424 c 1.90367,-0.05205 2.94206,0.300582 3.52327,1.351542 0.56217,1.051481 0.6862,2.800773 0.76115,5.542054 0.075,2.741281 0.0462,4.4757 -0.45772,5.556327 -0.52292,1.081147 -1.54049,1.489986 -3.44416,1.542032 z m 1.99975,-2.112171 c 0.70435,-0.01926 1.10204,-0.106334 1.29271,-0.797379 0.0863,-0.326226 0.14895,-0.823261 0.14977,-1.490065 8.2e-4,-0.666804 -0.0236,-1.561528 -0.0549,-2.703728 -0.0312,-1.142201 -0.0557,-2.036925 -0.0929,-2.702688 -0.0367,-0.646726 -0.12641,-1.139598 -0.23097,-1.479656 -0.22761,-0.660558 -0.62947,-0.725775 -1.33382,-0.706518 z" />
        <path
           id="path984"
           style="font-style:normal;font-variant:normal;font-weight:normal;font-stretch:normal;font-size:19.043787px;font-family:'League Gothic';-inkscape-font-specification:'League Gothic, Normal';font-variant-ligatures:normal;font-variant-caps:normal;font-variant-numeric:normal;font-feature-settings:normal;text-align:start;letter-spacing:1.16681278px;writing-mode:lr-tb;text-anchor:start;fill:#000000;stroke-width:0.47609466"
           d="m 136.58217,42.500097 c -0.16601,-0.07128 -0.35418,-0.106199 -0.52497,-0.120547 -0.30363,-0.02551 -0.66739,-0.01784 -0.99493,0.241302 -0.38607,0.273341 -0.4701,0.591166 -0.4972,0.913774 l -0.60581,7.211237 -1.91667,-0.161017 0.87204,-10.380386 1.91667,0.161017 -0.0973,1.157594 c 0.0301,-0.131245 0.19008,-0.442693 0.51922,-0.720816 0.32755,-0.259147 0.80531,-0.486562 1.50746,-0.427576 z" />
        <path
           id="path986"
           style="font-style:normal;font-variant:normal;font-weight:normal;font-stretch:normal;font-size:19.043787px;font-family:'League Gothic';-inkscape-font-specification:'League Gothic, Normal';font-variant-ligatures:normal;font-variant-caps:normal;font-variant-numeric:normal;font-feature-settings:normal;text-align:start;letter-spacing:1.16681278px;writing-mode:lr-tb;text-anchor:start;fill:#000000;stroke-width:0.47609466"
           d="m 142.06139,43.900594 c 0.0319,-0.168395 0.0816,-0.430344 0.0609,-0.62809 -0.0394,-0.201293 -0.16423,-0.36064 -0.40747,-0.406746 -0.31808,-0.06029 -0.49516,0.158119 -0.60804,0.446848 -0.0471,0.146139 -0.0977,0.310988 -0.12963,0.479383 -0.0319,0.168396 -0.0638,0.336791 -0.0922,0.486476 l -1.88977,-0.35821 0.0816,-0.430344 c 0.14187,-0.748425 0.55021,-1.368807 1.09502,-1.788875 0.54482,-0.420067 1.23772,-0.598852 1.96744,-0.460533 0.61745,0.117039 1.13266,0.466676 1.48498,0.959882 0.35232,0.493207 0.50432,1.122889 0.37664,1.796471 l -1.19167,6.286767 c -0.17379,0.916821 -0.19568,1.339094 -0.20596,1.802335 l -1.85235,-0.351116 c -0.12938,-0.237737 -0.0372,-0.724213 -0.0123,-0.855187 l -0.13098,-0.02483 c -0.12547,0.150663 -0.33997,0.361981 -0.64093,0.518145 -0.30096,0.156164 -0.68484,0.238463 -1.05905,0.16753 -0.24324,-0.04611 -0.61843,-0.214139 -0.84687,-0.645097 -0.25069,-0.415795 -0.39205,-1.101609 -0.18989,-2.168114 0.21634,-1.141348 0.70918,-1.900775 1.26464,-2.376975 0.55545,-0.476199 1.18416,-0.725302 1.69803,-0.879874 0.51387,-0.154572 0.90129,-0.255581 1.01515,-0.447212 z m -0.54263,2.862725 c -0.9913,0.219138 -1.55801,1.061479 -1.74243,2.034431 -0.0248,0.130974 -0.0487,0.359048 -0.0129,0.579051 0.0323,0.238714 0.13134,0.431936 0.35587,0.474496 0.43034,0.08157 0.83549,-0.11299 0.90288,-0.468492 z" />
        <path
           id="path988"
           style="font-style:normal;font-variant:normal;font-weight:normal;font-stretch:normal;font-size:19.043787px;font-family:'League Gothic';-inkscape-font-specification:'League Gothic, Normal';font-variant-ligatures:normal;font-variant-caps:normal;font-variant-numeric:normal;font-feature-settings:normal;text-align:start;letter-spacing:1.16681278px;writing-mode:lr-tb;text-anchor:start;fill:#000000;stroke-width:0.47609466"
           d="m 150.8626,39.884625 -1.97587,6.345786 0.0909,0.02831 0.211,-0.293321 1.70055,-2.322722 1.65463,0.515198 -2.33509,2.823242 -0.41628,7.230302 -1.76373,-0.549167 0.34206,-4.301468 0.009,-0.156785 -0.0909,-0.02831 -0.0998,0.128477 -0.41754,0.508249 -1.07003,3.436544 -1.83646,-0.571813 4.16121,-13.364336 z" />
      </g>
    </g>
  </g>
</svg>
